PathFileType	4	(X/Y/Z)	C:/Users/opensim2020/Desktop/walking_exp_matlab/subject02_walking14_straight_04.trc																																																																																																																									
DataRate	CameraRate	NumFrames	NumMarkers	Units	OrigDataRate	OrigDataStartFrame	OrigNumFrames																																																																																																																					
100	100	6	41	mm	100	1712	137																																																																																																																					
Frame#	Time	LFHD			RFHD			LBHD			RBHD			C7			T10			CLAV			STRN			RBAK			LSHO			LUPA			LELB			LFRM			LWRA			LWRB			LFIN			RSHO			RUPA			RELB			RFRM			RWRA			RWRB			RFIN			LASI			RASI			LPSI			RPSI			LTHI			LKNE			LTIB			LANK			LHEE			LTOE			RTHI			RKNE			RTIB			RANK			RHEE			RTOE			*39			*40		
		X1	Y1	Z1	X2	Y2	Z2	X3	Y3	Z3	X4	Y4	Z4	X5	Y5	Z5	X6	Y6	Z6	X7	Y7	Z7	X8	Y8	Z8	X9	Y9	Z9	X10	Y10	Z10	X11	Y11	Z11	X12	Y12	Z12	X13	Y13	Z13	X14	Y14	Z14	X15	Y15	Z15	X16	Y16	Z16	X17	Y17	Z17	X18	Y18	Z18	X19	Y19	Z19	X20	Y20	Z20	X21	Y21	Z21	X22	Y22	Z22	X23	Y23	Z23	X24	Y24	Z24	X25	Y25	Z25	X26	Y26	Z26	X27	Y27	Z27	X28	Y28	Z28	X29	Y29	Z29	X30	Y30	Z30	X31	Y31	Z31	X32	Y32	Z32	X33	Y33	Z33	X34	Y34	Z34	X35	Y35	Z35	X36	Y36	Z36	X37	Y37	Z37	X38	Y38	Z38	X39	Y39	Z39	X40	Y40	Z40	X41	Y41	Z41
																																																																																																																												
35	0.34	-447.76993	1760.13391	939.57648	-456.5145	1752.59009	1083.54163	-570.07623	1673.302	928.68793	-591.2207	1663.12598	1071.34766	-614.18549	1535.06726	1002.38245	-654.89752	1261.88708	1007.77838	-469.93304	1477.48865	1011.30377	-411.18204	1307.36255	1032.47729	-672.2663	1362.00098	1061.67419	-519.40692	1509.94519	833.39038	-508.70825	1308.43347	752.4173	-499.99448	1169.01355	736.71228	-470.54895	1039.62256	725.50128	-400.01849	923.40186	760.02948	-443.71274	920.04089	724.5874	-413.96191	862.00867	717.80609	-564.69061	1512.91052	1195.2937	-618.81207	1330.66418	1277.55139	-612.98615	1184.0437	1309.02673	-563.24475	1071.76648	1327.48975	-488.23145	958.40326	1305.85962	-533.4231	944.95435	1338.15747	-485.6731	887.9624	1334.58679	-431.48065	996.17725	905.10297	-457.39658	990.22607	1152.05371	-641.02551	1053.28284	956.53986	-658.61273	1054.42078	1072.17529	-503.0787	676.59161	858.21356	-537.8222	477.71768	900.3512	-605.19153	293.75607	907.01862	-618.2511	73.95795	956.94238	-656.86847	47.81113	1008.07611	-462.52908	36.5722	952.02655	-493.30157	690.28333	1235.06555	-449.57516	494.01712	1221.52771	-565.70654	351.54816	1206.25818	-663.87921	190.56253	1157.67737	-702.12	153.57011	1089.84448	-570.99695	69.16131	1203.4873	-560.96979	1822.4303	1017.27209	-2845.99316	1034.63306	3357.44897
36	0.35	-434.46503	1759.82117	942.11646	-443.44418	1752.06909	1085.77136	-556.7771	1672.96399	930.80383	-577.81061	1661.99463	1072.74609	-600.82959	1534.65979	1004.04553	-642.32831	1261.64795	1008.48602	-456.85791	1476.73572	1012.79712	-398.47815	1306.36707	1033.047	-659.08923	1361.44031	1062.43677	-505.81027	1509.9043	834.9093	-491.86557	1308.30872	754.40503	-480.35828	1168.53149	739.4292	-445.9863	1039.77417	731.52277	-372.10016	927.35413	770.86316	-414.19992	921.19537	733.94604	-381.74954	864.6828	729.40234	-551.02637	1511.33838	1197.24561	-605.96332	1329.09351	1279.02966	-602.12164	1182.24048	1308.98413	-556.84753	1068.2157	1327.0354	-486.93439	951.56116	1304.18433	-532.32062	940.3269	1337.19519	-487.53278	880.79828	1332.30469	-420.79318	994.86639	904.2774	-443.78763	989.88574	1150.87402	-629.34436	1052.63086	958.3562	-646.30273	1054.16638	1074.25061	-496.17587	676.01886	859.29779	-533.73914	477.34256	900.9024	-602.51129	293.97449	907.24213	-617.7392	74.33619	957.03687	-656.51166	48.08285	1007.828	-462.35724	36.48355	951.96021	-475.04633	691.67145	1236.70361	-427.5574	495.57309	1222.36499	-537.39124	347.15448	1209.33655	-626.91956	180.61479	1162.45789	-663.77283	140.72356	1095.18091	-526.34595	65.70111	1208.35864	-548.00702	1821.63184	1020.27704	-2845.95801	1034.53113	3357.41138
37	0.36	-421.74866	1759.4635	944.15363	-430.23398	1751.08997	1087.98975	-543.66217	1672.19116	932.93103	-564.40912	1661.01257	1075.20349	-587.46051	1533.96155	1005.65533	-629.70929	1261.0907	1009.29205	-443.68689	1475.67859	1014.27179	-385.76871	1305.04419	1033.70044	-646.18683	1360.77002	1063.50891	-491.97882	1509.44836	836.40509	-475.35037	1308.08093	756.21472	-461.00375	1167.9054	741.91901	-421.95493	1040.09937	737.48193	-344.6048	931.58838	781.43341	-384.91846	923.16333	743.61163	-350.18695	868.11804	741.14355	-537.29028	1509.47217	1199.07373	-593.05939	1327.23511	1280.44141	-591.1806	1180.20508	1309.01123	-550.39124	1064.40906	1326.14526	-485.6673	945.0332	1302.70349	-531.01178	935.46252	1335.85913	-489.29572	874.13684	1330.50989	-409.99954	993.2337	903.31946	-430.19669	989.58075	1150.01624	-617.93915	1051.78308	960.3811	-633.92725	1053.5575	1076.44849	-488.77499	675.43433	860.33228	-529.33112	476.93063	901.58325	-599.77051	294.229	907.70074	-617.38599	74.62567	957.35938	-656.85583	49.08696	1008.35352	-462.13251	36.34017	951.88129	-456.953	692.87628	1238.2605	-406.15317	496.77118	1223.24866	-508.3891	342.06958	1212.58911	-589.30804	170.44168	1167.62817	-624.64221	127.85303	1101.26782	-481.27682	62.70315	1213.52588	-535.02307	1820.81152	1022.3728	-2846.63379	1034.50513	3355.37256
38	0.37	-408.51215	1758.62805	946.4649	-416.93893	1749.83728	1090.34717	-530.15564	1671.00452	935.25763	-551.00464	1659.40906	1076.95044	-574.14136	1533.08972	1007.29431	-617.16528	1260.32568	1010.31335	-430.51108	1474.29309	1015.91644	-373.05859	1303.32617	1034.31995	-633.06964	1359.66028	1064.48962	-478.08447	1508.72583	837.95483	-458.73734	1307.64258	757.89972	-441.58102	1167.14355	744.42224	-397.20819	1040.53455	743.58679	-316.81137	936.35645	792.16541	-356.10898	925.24622	753.22931	-318.63538	871.74176	753.11053	-523.4502	1507.41187	1201.04517	-580.0542	1325.18286	1281.96704	-580.15631	1178.00049	1308.99805	-543.83704	1060.92407	1325.90808	-484.32703	938.79773	1301.6311	-529.94482	931.18597	1335.3186	-490.80502	868.05664	1329.18494	-399.40326	991.41064	902.5246	-416.72833	988.6554	1149.31641	-606.50305	1050.6864	962.58881	-621.60126	1052.69006	1078.80994	-480.90543	674.65826	861.62115	-524.83026	476.41071	902.36511	-597.22186	294.53238	908.35571	-616.94397	74.99547	957.81567	-656.49652	49.52868	1008.87085	-461.86172	36.22181	951.88782	-439.12018	693.83606	1239.78589	-385.39709	497.51791	1224.17468	-479.37314	336.72495	1215.81482	-550.8255	160.38782	1173.39001	-584.35394	114.96273	1107.82275	-435.74716	60.16727	1218.86548	-521.84869	1819.53479	1025.58508	-2846.13403	1034.44128	3356.82495
39	0.38	-394.99551	1757.38013	949.08887	-403.5585	1748.31274	1092.73535	-516.82507	1670.16443	937.47711	-537.60736	1658.27478	1080.53418	-560.63708	1531.90393	1008.89014	-604.51709	1259.28687	1011.508	-417.28946	1472.61108	1017.42548	-360.25812	1301.3252	1035.06226	-620.12799	1358.47876	1065.72632	-464.04532	1507.74634	839.53259	-442.10007	1306.95581	759.62891	-422.31177	1166.32617	746.73059	-372.89725	1041.21692	749.51514	-290.45105	941.65503	802.70941	-327.45047	928.18073	762.82489	-287.81705	876.20178	765.05023	-509.47876	1504.85767	1202.8999	-567.18256	1322.88953	1283.14246	-569.06451	1175.68762	1309.06726	-537.16711	1057.41309	1325.63367	-482.77463	932.97528	1300.8573	-528.38043	927.17572	1334.87329	-491.95221	862.53748	1328.44836	-388.39764	989.46722	901.79114	-403.28378	987.4646	1149	-595.18628	1049.36035	964.89996	-609.20361	1051.4176	1081.22998	-472.87357	673.62634	862.85284	-520.35535	475.93372	903.13239	-594.88306	294.96191	909.31403	-616.51605	75.37993	958.29114	-655.91016	49.80308	1009.1319	-461.83328	36.05792	951.71692	-421.56924	694.56909	1241.2179	-365.21396	497.71362	1225.20227	-450.26978	331.21213	1219.35742	-511.65125	150.45403	1179.82605	-543.23816	102.57256	1114.7793	-389.90674	58.32462	1224.37646	-508.55225	1817.91809	1027.85254	NaN	NaN	NaN
40	0.39	-381.81863	1756.23523	951.39453	-390.09125	1746.50452	1095.09656	-503.50748	1668.78955	939.70496	-524.19403	1656.4635	1082.92468	-547.1264	1530.38379	1010.46161	-591.87946	1258.00586	1012.88989	-404.25992	1470.50183	1018.97552	-347.43393	1299.07068	1035.89941	-606.85455	1356.8866	1066.8125	-450.0527	1506.54407	841.20178	-425.37024	1306.17957	761.75635	-402.9639	1165.34839	749.13275	-349.24326	1042.10706	755.401	-263.8269	947.41022	813.01331	-299.56317	931.12817	772.40155	-257.57266	881.24921	777.01733	-495.72397	1502.56873	1205.14783	-554.23987	1320.50256	1284.42529	-558.00201	1173.29504	1309.13928	-530.35577	1054.09241	1325.49597	-480.91937	927.57397	1300.3761	-526.49933	923.61731	1334.80896	-492.66238	857.63129	1328.03467	-377.9939	987.28876	901.0968	-389.90158	986.00104	1149.02563	-583.76575	1047.67004	967.24768	-596.83148	1049.71741	1083.61145	-464.60934	672.50171	864.07898	-515.81458	475.3847	904.03674	-592.6969	295.27707	910.31854	-616.18311	75.7621	958.74774	-655.58868	50.38649	1009.68323	-461.57288	35.95523	951.63409	-404.34979	694.90839	1242.60742	-345.94705	497.57889	1226.11548	-421.15424	325.61746	1223.14502	-471.91434	141.21074	1186.59033	-500.99438	90.59321	1122.41174	-343.78638	57.29224	1229.94617	-495.23248	1816.71045	1030.43542	-2846.05298	1034.5603	3357.17773
